<svg height="158" viewBox="0 0 207 158" width="207" xmlns="http://www.w3.org/2000/svg"><g fill="#4a4a4a" fill-rule="nonzero"><path d="m175.702894 80.3209859 20.231283-7.337261c2.850924-1.0339419 6.000805.4348658 7.041307 3.2834018l.688071 1.883701c1.042198 2.8531791-.425893 6.0110062-3.279072 7.0532042-.003964.001448-.00793.0028914-.011897.0043303l-20.780146 7.5363168c-.116006.0420717-.232507.0799995-.34934.1138592 5.168609 23.7320488-.824401 40.3132988-17.979029 49.7437488-33.319422 18.316756-87.4625717 17.404658-121.5729745 0-18.0000159-9.184416-22.6654793-26.261873-13.9963903-51.232371l-18.7035263-5.3439775c-2.92068792-.8344998-4.61187747-3.878681-3.7773776-6.7993689.00095584-.0033454.00191486-.0066899.00287705-.0100335l.55407759-1.9253905c.83891413-2.9151825 3.8797226-4.6007244 6.79649196-3.7673442l20.0856376 5.7388747c1.3959182-2.9933783 2.9509453-6.080937 4.6650814-9.2626761h136.4416111c1.49513 3.5560902 2.809568 6.9964188 3.943315 10.3209859z"/><path d="m93.3627164 22.0557687c-3.8028263-9.8329781-2.5010127-15.58418905 3.9054408-17.25363276 9.7431508-2.5389464 27.3574368 1.21601646 35.2285718 7.50992576 5.24274 4.1921947 4.001635 10.0740003-3.723315 17.645417 25.769586 7.6059691 43.451034 17.4743306 41.985671 24.3683205-.033926.1596095-.0769.3094502-.128808.4498951l1.362436 8.1817968-137.0000002-29.1202489 4.624506-7.3186439c.004227-.0215473.0086584-.0432259.0132946-.0650373 1.5640361-7.3582115 24.4327161-8.9400823 53.732203-4.3977923z"/></g></svg>